<?xml version="1.0" encoding="utf-8"?>
<!-- Generator: Adobe Illustrator 16.0.0, SVG Export Plug-In . SVG Version: 6.00 Build 0)  -->
<!DOCTYPE svg PUBLIC "-//W3C//DTD SVG 1.1//EN" "http://www.w3.org/Graphics/SVG/1.1/DTD/svg11.dtd">
<svg version="1.1" id="Layer_1" xmlns="http://www.w3.org/2000/svg" xmlns:xlink="http://www.w3.org/1999/xlink" x="0px" y="0px"
	 width="30px" height="30px" viewBox="0 0 30 30" enable-background="new 0 0 30 30" xml:space="preserve">
<title>BC8E529D-BED6-4F92-8B86-356A99730866</title>
<desc>Created with sketchtool.</desc>
<g id="Page-1">
	<g id="Homepage" transform="translate(-338.000000, -7485.000000)">
		<g id="Footer-slim-new-Copy" transform="translate(0.000000, 7235.000000)">
			<g id="Group-15" transform="translate(281.000000, 250.000000)">
				<g id="linkedin" transform="translate(57.000000, 0.000000)">
					<circle id="Oval" fill="#00B5F2" cx="15" cy="15" r="15"/>
					<g id="linkedin-icon" transform="translate(8.000000, 7.000000)">
						<polygon id="Path" fill="#FFFFFF" points="3.6,14.3 0.7,14.3 0.7,5.1 3.6,5.1 						"/>
						<path id="Path_1_" fill="#FFFFFF" d="M2.2,3.8c-0.9,0-1.7-0.7-1.7-1.7c0-0.9,0.7-1.7,1.7-1.7c0.9,0,1.7,0.7,1.7,1.7
							C3.8,3.1,3.1,3.8,2.2,3.8z"/>
						<path id="Path_2_" fill="#FFFFFF" d="M14.3,14.3H11.4V9.8c0-1.1,0-2.4-1.5-2.4S8.2,8.6,8.2,9.8v4.5H5.4V5.1h2.7v1.3l0,0
							C8.5,5.7,9.4,4.9,10.8,4.9c2.9,0,3.4,1.9,3.4,4.4v5H14.3z"/>
					</g>
				</g>
			</g>
		</g>
	</g>
</g>
</svg>
