<?xml version="1.0" encoding="utf-8"?>
<!-- Generator: Adobe Illustrator 16.0.0, SVG Export Plug-In . SVG Version: 6.00 Build 0)  -->
<!DOCTYPE svg PUBLIC "-//W3C//DTD SVG 1.1//EN" "http://www.w3.org/Graphics/SVG/1.1/DTD/svg11.dtd">
<svg version="1.1" id="Layer_1" xmlns="http://www.w3.org/2000/svg" xmlns:xlink="http://www.w3.org/1999/xlink" x="0px" y="0px"
	 width="30px" height="30px" viewBox="0 0 30 30" enable-background="new 0 0 30 30" xml:space="preserve">
<title>AE1AB53A-62C9-4C4F-9E1A-E8DE00F5577E</title>
<desc>Created with sketchtool.</desc>
<g id="Page-1">
	<g id="Homepage" transform="translate(-395.000000, -7486.000000)">
		<g id="Footer-slim-new-Copy" transform="translate(0.000000, 7235.000000)">
			<g id="Group-15" transform="translate(281.000000, 250.000000)">
				<g id="podcasts" transform="translate(114.000000, 1.000000)">
					<circle id="Oval" fill="#BE0000" cx="15" cy="15" r="15"/>
					<g id="Shape" transform="translate(7.000000, 7.000000)">
						<path fill="#FFFFFF" d="M8,16c0,0,1.75,0,1.75-5.18c0-0.965-0.784-1.75-1.75-1.75s-1.75,0.785-1.75,1.75C6.25,16,8,16,8,16z
							 M10.146,14.234c0.078-0.297,0.137-0.596,0.184-0.897l0.035-0.239c0.076-0.033,0.154-0.065,0.23-0.101
							c1.215-0.55,2.237-1.49,2.889-2.653c0.298-0.533,0.517-1.109,0.646-1.71c0.15-0.67,0.189-1.368,0.11-2.052
							c-0.07-0.64-0.24-1.266-0.511-1.853c-0.31-0.69-0.739-1.32-1.279-1.85c-0.551-0.55-1.2-1-1.91-1.31
							c-0.73-0.33-1.529-0.5-2.34-0.52c-0.81-0.02-1.62,0.11-2.38,0.4c-0.73,0.28-1.4,0.69-1.98,1.22c-0.55,0.5-1.02,1.11-1.36,1.78
							c-0.29,0.57-0.49,1.18-0.6,1.81c-0.11,0.65-0.11,1.32-0.01,1.98c0.09,0.579,0.26,1.149,0.51,1.69
							c0.59,1.25,1.59,2.289,2.83,2.92c0.15,0.069,0.3,0.14,0.46,0.209c0.01,0.08,0.03,0.17,0.04,0.26
							c0.05,0.291,0.11,0.591,0.18,0.881c-0.27-0.09-0.54-0.19-0.8-0.311c-1.43-0.649-2.64-1.77-3.39-3.16
							c-0.34-0.629-0.58-1.299-0.73-2c-0.17-0.77-0.2-1.58-0.1-2.37c0.1-0.74,0.31-1.47,0.62-2.14c0.37-0.79,0.89-1.52,1.51-2.13
							C3.61,1.48,4.37,0.97,5.2,0.62c0.866-0.364,1.797-0.558,2.733-0.57c0.938-0.01,1.877,0.16,2.75,0.503
							c0.842,0.332,1.617,0.824,2.279,1.44c0.641,0.595,1.17,1.304,1.559,2.086c0.33,0.66,0.56,1.38,0.67,2.11
							c0.119,0.76,0.119,1.54-0.01,2.29c-0.111,0.701-0.341,1.39-0.65,2.03c-0.7,1.41-1.86,2.57-3.27,3.271
							c-0.351,0.17-0.721,0.32-1.101,0.439L10.146,14.234z M10.493,11.38l0.006-0.312c0-0.211,0-0.42-0.03-0.627
							c-0.01-0.08-0.029-0.15-0.05-0.23c0.37-0.3,0.681-0.68,0.91-1.109c0.17-0.32,0.3-0.67,0.37-1.031
							c0.08-0.4,0.1-0.82,0.039-1.24c-0.049-0.37-0.149-0.73-0.299-1.07c-0.19-0.41-0.451-0.79-0.771-1.11
							c-0.33-0.32-0.7-0.58-1.12-0.77c-0.46-0.2-0.96-0.32-1.46-0.33c-0.5-0.01-1.01,0.08-1.48,0.26c-0.42,0.17-0.81,0.41-1.15,0.72
							c-0.34,0.31-0.62,0.67-0.82,1.08c-0.17,0.33-0.29,0.68-0.36,1.05c-0.07,0.38-0.08,0.77-0.03,1.15
							c0.05,0.37,0.15,0.73,0.3,1.07c0.23,0.51,0.57,0.96,0.99,1.33l-0.06,0.27c-0.04,0.211-0.03,0.41-0.03,0.631v0.279
							c-0.7-0.43-1.28-1.05-1.67-1.77c-0.23-0.41-0.39-0.85-0.48-1.31c-0.11-0.51-0.13-1.04-0.06-1.56
							c0.06-0.47,0.19-0.93,0.38-1.35c0.23-0.52,0.57-1,0.97-1.41c0.41-0.41,0.89-0.74,1.41-0.97c0.58-0.26,1.21-0.4,1.84-0.42
							c0.64-0.01,1.28,0.1,1.87,0.33c0.54,0.21,1.029,0.52,1.46,0.91c0.42,0.39,0.78,0.85,1.04,1.36c0.21,0.42,0.37,0.87,0.45,1.33
							c0.079,0.479,0.1,0.97,0.03,1.45c-0.061,0.47-0.19,0.93-0.391,1.36c-0.39,0.87-1.061,1.62-1.88,2.11L10.493,11.38z M8,5.016
							c0.975,0,1.764,0.79,1.764,1.765c0,0.979-0.789,1.77-1.764,1.77c-0.974,0-1.764-0.79-1.764-1.76
							c0-0.97,0.79-1.761,1.764-1.761V5.016z"/>
					</g>
				</g>
			</g>
		</g>
	</g>
</g>
</svg>
