<?xml version="1.0" encoding="utf-8"?>
<!-- Generator: Adobe Illustrator 16.0.0, SVG Export Plug-In . SVG Version: 6.00 Build 0)  -->
<!DOCTYPE svg PUBLIC "-//W3C//DTD SVG 1.1//EN" "http://www.w3.org/Graphics/SVG/1.1/DTD/svg11.dtd">
<svg version="1.1" id="Layer_1" xmlns="http://www.w3.org/2000/svg" xmlns:xlink="http://www.w3.org/1999/xlink" x="0px" y="0px"
	 width="30px" height="30px" viewBox="0 0 30 30" enable-background="new 0 0 30 30" xml:space="preserve">
<title>31ADF1CE-0615-4909-BA5B-3F530FC66D04</title>
<desc>Created with sketchtool.</desc>
<g id="Page-1">
	<g id="Homepage" transform="translate(-281.000000, -7485.000000)">
		<g id="Footer-slim-new-Copy" transform="translate(0.000000, 7235.000000)">
			<g id="Group-15" transform="translate(281.000000, 250.000000)">
				<g id="twitter">
					<circle id="Oval" fill="#EACDDE" cx="15" cy="15" r="15"/>
					<g id="Path" transform="translate(8.000000, 9.000000)">
						<path fill="#FFFFFF" d="M13.998,1.418c-0.525,0.244-1.08,0.405-1.65,0.477c0.601-0.378,1.05-0.974,1.264-1.676
							c-0.563,0.354-1.182,0.603-1.826,0.734C11.242,0.344,10.483-0.001,9.689,0C8.813,0,7.983,0.422,7.438,1.147
							S6.693,2.82,6.893,3.721C4.507,3.591,2.39,2.386,0.973,0.553C0.718,1.016,0.584,1.542,0.584,2.077
							c0,1.052,0.507,1.977,1.277,2.521C1.406,4.582,0.96,4.452,0.561,4.219v0.037c0,1.47,0.992,2.694,2.306,2.97
							C2.625,7.298,2.371,7.334,2.11,7.334c-0.186,0-0.365-0.019-0.542-0.053c0.377,1.232,1.455,2.078,2.684,2.104
							c-1.018,0.841-2.273,1.297-3.566,1.296c-0.232,0-0.461-0.015-0.686-0.042C1.314,11.529,2.843,12.001,4.404,12
							c5.283,0,8.172-4.617,8.172-8.619c0-0.131-0.002-0.262-0.008-0.392C13.128,2.562,13.615,2.03,14,1.421L13.998,1.418z"/>
					</g>
				</g>
			</g>
		</g>
	</g>
</g>
</svg>
